<svg width="245" height="250" viewBox="0 0 245 250" fill="none" xmlns="http://www.w3.org/2000/svg">
<path d="M244.828 127.813C244.828 119.583 244.099 111.771 242.849 104.167H125.141V151.146H192.536C189.516 166.563 180.661 179.583 167.536 188.438V219.688H207.745C231.286 197.917 244.828 165.833 244.828 127.813Z" fill="#4285F4"/>
<path d="M125.141 250C158.891 250 187.12 238.75 207.745 219.688L167.536 188.438C156.286 195.938 142.016 200.521 125.141 200.521C92.5365 200.521 64.9323 178.542 55.0365 148.854H13.5781V181.042C34.099 221.875 76.2865 250 125.141 250Z" fill="#34A853"/>
<path d="M55.0365 148.854C52.4323 141.354 51.0781 133.333 51.0781 125C51.0781 116.667 52.5365 108.646 55.0365 101.146V68.9583H13.5781C5.03646 85.8333 0.140625 104.792 0.140625 125C0.140625 145.208 5.03646 164.167 13.5781 181.042L55.0365 148.854Z" fill="#FBBC05"/>
<path d="M125.141 49.4792C143.578 49.4792 160.036 55.8333 173.057 68.2292L208.682 32.6042C187.12 12.3958 158.891 0 125.141 0C76.2865 0 34.099 28.125 13.5781 68.9583L55.0365 101.146C64.9323 71.4583 92.5365 49.4792 125.141 49.4792Z" fill="#EA4335"/>
</svg>
